<?xml version="1.0" encoding="UTF-8"?>
<svg xmlns="http://www.w3.org/2000/svg" xmlns:xlink="http://www.w3.org/1999/xlink" width="100px" height="100px" viewBox="0 0 100 100" version="1.1">
<defs>
<clipPath id="clip1">
  <path d="M 16.667969 23 L 65 23 L 65 77 L 16.667969 77 Z M 16.667969 23 "/>
</clipPath>
</defs>
<g id="surface1">
<rect x="0" y="0" width="100" height="100" style="fill:rgb(18.039216%,0.784314%,30.588236%);fill-opacity:1;stroke:none;"/>
<path style=" stroke:none;fill-rule:nonzero;fill:rgb(83.529413%,47.450981%,100%);fill-opacity:1;" d="M 41.484375 72.46875 L 41.484375 50.480469 L 46.78125 50.480469 C 48.753906 50.480469 50.433594 50.699219 51.820312 51.136719 C 53.207031 51.578125 54.347656 52.160156 55.246094 52.890625 C 56.144531 53.617188 56.847656 54.445312 57.355469 55.371094 C 57.863281 56.300781 58.21875 57.257812 58.417969 58.242188 C 58.617188 59.230469 58.71875 60.183594 58.71875 61.101562 C 58.71875 62.476562 58.523438 63.839844 58.132812 65.183594 C 57.746094 66.53125 57.101562 67.753906 56.203125 68.847656 C 55.308594 69.945312 54.105469 70.824219 52.601562 71.480469 C 51.09375 72.140625 49.214844 72.46875 46.960938 72.46875 Z M 44.835938 69.507812 L 47.320312 69.507812 C 48.796875 69.507812 50.035156 69.277344 51.042969 68.820312 C 52.050781 68.359375 52.859375 67.738281 53.46875 66.949219 C 54.074219 66.160156 54.515625 65.273438 54.785156 64.289062 C 55.054688 63.300781 55.1875 62.289062 55.1875 61.25 C 55.1875 59.835938 54.9375 58.53125 54.441406 57.347656 C 53.941406 56.160156 53.117188 55.207031 51.972656 54.488281 C 50.824219 53.773438 49.273438 53.414062 47.320312 53.414062 L 44.835938 53.414062 Z M 44.835938 69.507812 "/>
<path style=" stroke:none;fill-rule:nonzero;fill:rgb(83.529413%,47.450981%,100%);fill-opacity:1;" d="M 71.582031 72.46875 L 71.582031 62.207031 L 63.953125 50.480469 L 67.960938 50.480469 L 73.257812 59.15625 L 78.550781 50.480469 L 82.53125 50.480469 L 74.933594 62.269531 L 74.933594 72.46875 Z M 71.582031 72.46875 "/>
<path style=" stroke:none;fill-rule:nonzero;fill:rgb(100%,100%,100%);fill-opacity:1;" d="M 18.699219 54.765625 L 37.359375 54.765625 M 42.851562 46.820312 L 42.851562 27.609375 M 38.027344 49.546875 L 24.613281 36.136719 M 39.476562 58.980469 L 26.066406 72.390625 M 61.207031 35.347656 L 47.445312 49.109375 "/>
<g clip-path="url(#clip1)" clip-rule="nonzero">
<path style="fill:none;stroke-width:5;stroke-linecap:butt;stroke-linejoin:miter;stroke:rgb(83.529413%,47.450981%,100%);stroke-opacity:1;stroke-miterlimit:4;" d="M 15.762441 224.457422 L 160.471953 224.457422 M 203.063867 162.841523 L 203.063867 13.860703 M 165.652051 183.986016 L 61.625996 79.990254 M 176.890742 257.143535 L 72.89498 361.139297 M 345.410527 73.871074 L 238.688398 180.593203 " transform="matrix(0.128949,0,0,0.128949,16.666667,25.82205)"/>
</g>
</g>
</svg>
